<mxfile host="app.diagrams.net" modified="2022-04-02T08:07:08.411Z" agent="5.0 (Windows NT 10.0; Win64; x64) AppleWebKit/537.36 (KHTML, like Gecko) Chrome/100.0.4896.60 Safari/537.36" etag="ANOnlXBhCDoZGf7NRfJu" version="17.4.0" type="github">
  <diagram id="dH4zpt-dySkcV9n_ozP4" name="Page-1">
    <mxGraphModel dx="3656" dy="3523" grid="1" gridSize="10" guides="1" tooltips="1" connect="1" arrows="1" fold="1" page="1" pageScale="1" pageWidth="690" pageHeight="980" math="0" shadow="0">
      <root>
        <mxCell id="0" />
        <mxCell id="1" parent="0" />
        <mxCell id="H8aK6nbUv7Lkt6vLbVXH-457" style="edgeStyle=orthogonalEdgeStyle;rounded=0;orthogonalLoop=1;jettySize=auto;html=1;exitX=0.5;exitY=1;exitDx=0;exitDy=0;entryX=0.531;entryY=0.167;entryDx=0;entryDy=0;entryPerimeter=0;" parent="1" source="H8aK6nbUv7Lkt6vLbVXH-1" target="H8aK6nbUv7Lkt6vLbVXH-2" edge="1">
          <mxGeometry relative="1" as="geometry" />
        </mxCell>
        <mxCell id="H8aK6nbUv7Lkt6vLbVXH-1" value="Start" style="ellipse;whiteSpace=wrap;html=1;" parent="1" vertex="1">
          <mxGeometry x="-30" y="-1800" width="120" height="90" as="geometry" />
        </mxCell>
        <mxCell id="H8aK6nbUv7Lkt6vLbVXH-528" style="edgeStyle=none;rounded=0;orthogonalLoop=1;jettySize=auto;html=1;exitX=0.5;exitY=1;exitDx=0;exitDy=0;entryX=0.5;entryY=0;entryDx=0;entryDy=0;" parent="1" source="H8aK6nbUv7Lkt6vLbVXH-2" target="H8aK6nbUv7Lkt6vLbVXH-3" edge="1">
          <mxGeometry relative="1" as="geometry" />
        </mxCell>
        <mxCell id="H8aK6nbUv7Lkt6vLbVXH-2" value="Display Operations" style="rounded=0;whiteSpace=wrap;html=1;" parent="1" vertex="1">
          <mxGeometry x="-150" y="-1640" width="340" height="60" as="geometry" />
        </mxCell>
        <mxCell id="H8aK6nbUv7Lkt6vLbVXH-527" style="edgeStyle=none;rounded=0;orthogonalLoop=1;jettySize=auto;html=1;exitX=0.5;exitY=1;exitDx=0;exitDy=0;entryX=0.5;entryY=0;entryDx=0;entryDy=0;" parent="1" source="H8aK6nbUv7Lkt6vLbVXH-3" target="H8aK6nbUv7Lkt6vLbVXH-4" edge="1">
          <mxGeometry relative="1" as="geometry" />
        </mxCell>
        <mxCell id="H8aK6nbUv7Lkt6vLbVXH-3" value="Read choice" style="shape=parallelogram;perimeter=parallelogramPerimeter;whiteSpace=wrap;html=1;fixedSize=1;" parent="1" vertex="1">
          <mxGeometry x="-60" y="-1510" width="150" height="60" as="geometry" />
        </mxCell>
        <mxCell id="H8aK6nbUv7Lkt6vLbVXH-461" value="yes" style="edgeStyle=orthogonalEdgeStyle;rounded=0;orthogonalLoop=1;jettySize=auto;html=1;exitX=1;exitY=0.5;exitDx=0;exitDy=0;entryX=0.5;entryY=0;entryDx=0;entryDy=0;" parent="1" source="H8aK6nbUv7Lkt6vLbVXH-4" target="H8aK6nbUv7Lkt6vLbVXH-6" edge="1">
          <mxGeometry relative="1" as="geometry" />
        </mxCell>
        <mxCell id="H8aK6nbUv7Lkt6vLbVXH-462" value="no" style="edgeStyle=orthogonalEdgeStyle;rounded=0;orthogonalLoop=1;jettySize=auto;html=1;exitX=0.5;exitY=1;exitDx=0;exitDy=0;entryX=0.5;entryY=0;entryDx=0;entryDy=0;" parent="1" source="H8aK6nbUv7Lkt6vLbVXH-4" target="H8aK6nbUv7Lkt6vLbVXH-8" edge="1">
          <mxGeometry relative="1" as="geometry" />
        </mxCell>
        <mxCell id="H8aK6nbUv7Lkt6vLbVXH-4" value="if(n&amp;gt;0 &amp;amp;&amp;amp; n&amp;lt;=4 || n==14)" style="rhombus;whiteSpace=wrap;html=1;" parent="1" vertex="1">
          <mxGeometry x="-90" y="-1390" width="205" height="100" as="geometry" />
        </mxCell>
        <mxCell id="H8aK6nbUv7Lkt6vLbVXH-467" value="yes" style="rounded=0;orthogonalLoop=1;jettySize=auto;html=1;exitX=1;exitY=0.5;exitDx=0;exitDy=0;" parent="1" source="H8aK6nbUv7Lkt6vLbVXH-6" edge="1">
          <mxGeometry relative="1" as="geometry">
            <mxPoint x="440" y="-880" as="targetPoint" />
            <Array as="points">
              <mxPoint x="440" y="-1250" />
            </Array>
          </mxGeometry>
        </mxCell>
        <mxCell id="H8aK6nbUv7Lkt6vLbVXH-6" value="Read a&lt;br&gt;Read b" style="shape=parallelogram;perimeter=parallelogramPerimeter;whiteSpace=wrap;html=1;fixedSize=1;" parent="1" vertex="1">
          <mxGeometry x="200" y="-1280" width="120" height="65" as="geometry" />
        </mxCell>
        <mxCell id="H8aK6nbUv7Lkt6vLbVXH-469" value="yes" style="edgeStyle=orthogonalEdgeStyle;rounded=0;orthogonalLoop=1;jettySize=auto;html=1;exitX=1;exitY=0.5;exitDx=0;exitDy=0;" parent="1" source="H8aK6nbUv7Lkt6vLbVXH-7" edge="1">
          <mxGeometry relative="1" as="geometry">
            <mxPoint x="440" y="-1005.0769230769231" as="targetPoint" />
          </mxGeometry>
        </mxCell>
        <mxCell id="H8aK6nbUv7Lkt6vLbVXH-7" value="Read a" style="shape=parallelogram;perimeter=parallelogramPerimeter;whiteSpace=wrap;html=1;fixedSize=1;" parent="1" vertex="1">
          <mxGeometry x="210" y="-1040" width="120" height="70" as="geometry" />
        </mxCell>
        <mxCell id="H8aK6nbUv7Lkt6vLbVXH-463" value="no" style="edgeStyle=orthogonalEdgeStyle;rounded=0;orthogonalLoop=1;jettySize=auto;html=1;exitX=0.5;exitY=1;exitDx=0;exitDy=0;entryX=0.341;entryY=0.018;entryDx=0;entryDy=0;entryPerimeter=0;" parent="1" source="H8aK6nbUv7Lkt6vLbVXH-8" target="H8aK6nbUv7Lkt6vLbVXH-9" edge="1">
          <mxGeometry relative="1" as="geometry" />
        </mxCell>
        <mxCell id="H8aK6nbUv7Lkt6vLbVXH-470" value="yes" style="edgeStyle=orthogonalEdgeStyle;rounded=0;orthogonalLoop=1;jettySize=auto;html=1;exitX=1;exitY=0.5;exitDx=0;exitDy=0;entryX=0.5;entryY=0;entryDx=0;entryDy=0;" parent="1" source="H8aK6nbUv7Lkt6vLbVXH-8" target="H8aK6nbUv7Lkt6vLbVXH-7" edge="1">
          <mxGeometry relative="1" as="geometry" />
        </mxCell>
        <mxCell id="H8aK6nbUv7Lkt6vLbVXH-8" value="if( n&amp;gt;=5&amp;nbsp; &amp;amp;&amp;amp; n&amp;lt;=13)" style="rhombus;whiteSpace=wrap;html=1;" parent="1" vertex="1">
          <mxGeometry x="-90" y="-1180" width="205" height="100" as="geometry" />
        </mxCell>
        <mxCell id="H8aK6nbUv7Lkt6vLbVXH-464" style="edgeStyle=orthogonalEdgeStyle;rounded=0;orthogonalLoop=1;jettySize=auto;html=1;exitX=0.5;exitY=1;exitDx=0;exitDy=0;entryX=0.5;entryY=0;entryDx=0;entryDy=0;" parent="1" source="H8aK6nbUv7Lkt6vLbVXH-9" target="H8aK6nbUv7Lkt6vLbVXH-10" edge="1">
          <mxGeometry relative="1" as="geometry" />
        </mxCell>
        <mxCell id="H8aK6nbUv7Lkt6vLbVXH-473" style="edgeStyle=orthogonalEdgeStyle;rounded=0;orthogonalLoop=1;jettySize=auto;html=1;exitX=1;exitY=0.5;exitDx=0;exitDy=0;entryX=1;entryY=0.5;entryDx=0;entryDy=0;" parent="1" target="H8aK6nbUv7Lkt6vLbVXH-9" edge="1">
          <mxGeometry relative="1" as="geometry">
            <mxPoint x="440" y="-880.4615384615386" as="sourcePoint" />
          </mxGeometry>
        </mxCell>
        <mxCell id="H8aK6nbUv7Lkt6vLbVXH-9" value="switch(choice)" style="rounded=0;whiteSpace=wrap;html=1;" parent="1" vertex="1">
          <mxGeometry x="-80" y="-910" width="270" height="60" as="geometry" />
        </mxCell>
        <mxCell id="H8aK6nbUv7Lkt6vLbVXH-474" value="no" style="edgeStyle=none;rounded=0;orthogonalLoop=1;jettySize=auto;html=1;exitX=0.5;exitY=1;exitDx=0;exitDy=0;entryX=0.5;entryY=0;entryDx=0;entryDy=0;" parent="1" source="H8aK6nbUv7Lkt6vLbVXH-10" target="H8aK6nbUv7Lkt6vLbVXH-11" edge="1">
          <mxGeometry relative="1" as="geometry" />
        </mxCell>
        <mxCell id="H8aK6nbUv7Lkt6vLbVXH-505" value="yes" style="edgeStyle=none;rounded=0;orthogonalLoop=1;jettySize=auto;html=1;exitX=1;exitY=0.5;exitDx=0;exitDy=0;entryX=0;entryY=0.5;entryDx=0;entryDy=0;" parent="1" source="H8aK6nbUv7Lkt6vLbVXH-10" target="H8aK6nbUv7Lkt6vLbVXH-423" edge="1">
          <mxGeometry relative="1" as="geometry" />
        </mxCell>
        <mxCell id="H8aK6nbUv7Lkt6vLbVXH-10" value="case 1" style="rhombus;whiteSpace=wrap;html=1;" parent="1" vertex="1">
          <mxGeometry x="10" y="-790" width="90" height="80" as="geometry" />
        </mxCell>
        <mxCell id="H8aK6nbUv7Lkt6vLbVXH-475" value="no" style="edgeStyle=none;rounded=0;orthogonalLoop=1;jettySize=auto;html=1;exitX=0.5;exitY=1;exitDx=0;exitDy=0;entryX=0.5;entryY=0;entryDx=0;entryDy=0;" parent="1" source="H8aK6nbUv7Lkt6vLbVXH-11" target="H8aK6nbUv7Lkt6vLbVXH-393" edge="1">
          <mxGeometry relative="1" as="geometry" />
        </mxCell>
        <mxCell id="H8aK6nbUv7Lkt6vLbVXH-506" value="yes" style="edgeStyle=none;rounded=0;orthogonalLoop=1;jettySize=auto;html=1;exitX=1;exitY=0.5;exitDx=0;exitDy=0;entryX=0;entryY=0.5;entryDx=0;entryDy=0;" parent="1" source="H8aK6nbUv7Lkt6vLbVXH-11" target="H8aK6nbUv7Lkt6vLbVXH-424" edge="1">
          <mxGeometry relative="1" as="geometry" />
        </mxCell>
        <mxCell id="H8aK6nbUv7Lkt6vLbVXH-11" value="case 2" style="rhombus;whiteSpace=wrap;html=1;" parent="1" vertex="1">
          <mxGeometry x="10" y="-670" width="90" height="80" as="geometry" />
        </mxCell>
        <mxCell id="H8aK6nbUv7Lkt6vLbVXH-476" value="no" style="edgeStyle=none;rounded=0;orthogonalLoop=1;jettySize=auto;html=1;exitX=0.5;exitY=1;exitDx=0;exitDy=0;entryX=0.5;entryY=0;entryDx=0;entryDy=0;" parent="1" source="H8aK6nbUv7Lkt6vLbVXH-393" target="H8aK6nbUv7Lkt6vLbVXH-394" edge="1">
          <mxGeometry relative="1" as="geometry" />
        </mxCell>
        <mxCell id="H8aK6nbUv7Lkt6vLbVXH-507" value="yes" style="edgeStyle=none;rounded=0;orthogonalLoop=1;jettySize=auto;html=1;exitX=1;exitY=0.5;exitDx=0;exitDy=0;entryX=0;entryY=0.5;entryDx=0;entryDy=0;" parent="1" source="H8aK6nbUv7Lkt6vLbVXH-393" target="H8aK6nbUv7Lkt6vLbVXH-425" edge="1">
          <mxGeometry relative="1" as="geometry" />
        </mxCell>
        <mxCell id="H8aK6nbUv7Lkt6vLbVXH-393" value="case 3" style="rhombus;whiteSpace=wrap;html=1;" parent="1" vertex="1">
          <mxGeometry x="10" y="-550" width="90" height="80" as="geometry" />
        </mxCell>
        <mxCell id="H8aK6nbUv7Lkt6vLbVXH-477" value="no" style="edgeStyle=none;rounded=0;orthogonalLoop=1;jettySize=auto;html=1;exitX=0.5;exitY=1;exitDx=0;exitDy=0;entryX=0.5;entryY=0;entryDx=0;entryDy=0;" parent="1" source="H8aK6nbUv7Lkt6vLbVXH-394" target="H8aK6nbUv7Lkt6vLbVXH-397" edge="1">
          <mxGeometry relative="1" as="geometry" />
        </mxCell>
        <mxCell id="H8aK6nbUv7Lkt6vLbVXH-508" value="yes" style="edgeStyle=none;rounded=0;orthogonalLoop=1;jettySize=auto;html=1;exitX=1;exitY=0.5;exitDx=0;exitDy=0;entryX=0;entryY=0.5;entryDx=0;entryDy=0;" parent="1" source="H8aK6nbUv7Lkt6vLbVXH-394" target="H8aK6nbUv7Lkt6vLbVXH-426" edge="1">
          <mxGeometry relative="1" as="geometry" />
        </mxCell>
        <mxCell id="H8aK6nbUv7Lkt6vLbVXH-394" value="case 4" style="rhombus;whiteSpace=wrap;html=1;" parent="1" vertex="1">
          <mxGeometry x="10" y="-430" width="90" height="80" as="geometry" />
        </mxCell>
        <mxCell id="H8aK6nbUv7Lkt6vLbVXH-479" value="no" style="edgeStyle=none;rounded=0;orthogonalLoop=1;jettySize=auto;html=1;exitX=0.5;exitY=1;exitDx=0;exitDy=0;" parent="1" source="H8aK6nbUv7Lkt6vLbVXH-397" target="H8aK6nbUv7Lkt6vLbVXH-418" edge="1">
          <mxGeometry relative="1" as="geometry" />
        </mxCell>
        <mxCell id="H8aK6nbUv7Lkt6vLbVXH-509" value="yes" style="edgeStyle=none;rounded=0;orthogonalLoop=1;jettySize=auto;html=1;exitX=1;exitY=0.5;exitDx=0;exitDy=0;entryX=0;entryY=0.5;entryDx=0;entryDy=0;" parent="1" source="H8aK6nbUv7Lkt6vLbVXH-397" target="H8aK6nbUv7Lkt6vLbVXH-427" edge="1">
          <mxGeometry relative="1" as="geometry" />
        </mxCell>
        <mxCell id="H8aK6nbUv7Lkt6vLbVXH-397" value="case 5" style="rhombus;whiteSpace=wrap;html=1;" parent="1" vertex="1">
          <mxGeometry x="10" y="-310" width="90" height="80" as="geometry" />
        </mxCell>
        <mxCell id="H8aK6nbUv7Lkt6vLbVXH-480" value="no" style="edgeStyle=none;rounded=0;orthogonalLoop=1;jettySize=auto;html=1;exitX=0.5;exitY=1;exitDx=0;exitDy=0;entryX=0.5;entryY=0;entryDx=0;entryDy=0;" parent="1" source="H8aK6nbUv7Lkt6vLbVXH-418" target="H8aK6nbUv7Lkt6vLbVXH-419" edge="1">
          <mxGeometry relative="1" as="geometry" />
        </mxCell>
        <mxCell id="H8aK6nbUv7Lkt6vLbVXH-510" value="yes" style="edgeStyle=none;rounded=0;orthogonalLoop=1;jettySize=auto;html=1;exitX=1;exitY=0.5;exitDx=0;exitDy=0;entryX=0;entryY=0.5;entryDx=0;entryDy=0;" parent="1" source="H8aK6nbUv7Lkt6vLbVXH-418" target="H8aK6nbUv7Lkt6vLbVXH-428" edge="1">
          <mxGeometry relative="1" as="geometry" />
        </mxCell>
        <mxCell id="H8aK6nbUv7Lkt6vLbVXH-418" value="case 6" style="rhombus;whiteSpace=wrap;html=1;" parent="1" vertex="1">
          <mxGeometry x="10" y="-190" width="90" height="80" as="geometry" />
        </mxCell>
        <mxCell id="H8aK6nbUv7Lkt6vLbVXH-481" value="no" style="edgeStyle=none;rounded=0;orthogonalLoop=1;jettySize=auto;html=1;" parent="1" source="H8aK6nbUv7Lkt6vLbVXH-419" target="H8aK6nbUv7Lkt6vLbVXH-420" edge="1">
          <mxGeometry relative="1" as="geometry" />
        </mxCell>
        <mxCell id="H8aK6nbUv7Lkt6vLbVXH-511" value="yes" style="edgeStyle=none;rounded=0;orthogonalLoop=1;jettySize=auto;html=1;exitX=1;exitY=0.5;exitDx=0;exitDy=0;entryX=0;entryY=0.5;entryDx=0;entryDy=0;" parent="1" source="H8aK6nbUv7Lkt6vLbVXH-419" target="H8aK6nbUv7Lkt6vLbVXH-429" edge="1">
          <mxGeometry relative="1" as="geometry" />
        </mxCell>
        <mxCell id="H8aK6nbUv7Lkt6vLbVXH-419" value="case 7" style="rhombus;whiteSpace=wrap;html=1;" parent="1" vertex="1">
          <mxGeometry x="10" y="-70" width="90" height="80" as="geometry" />
        </mxCell>
        <mxCell id="H8aK6nbUv7Lkt6vLbVXH-482" value="no" style="edgeStyle=none;rounded=0;orthogonalLoop=1;jettySize=auto;html=1;exitX=0.5;exitY=1;exitDx=0;exitDy=0;entryX=0.5;entryY=0;entryDx=0;entryDy=0;" parent="1" source="H8aK6nbUv7Lkt6vLbVXH-420" target="H8aK6nbUv7Lkt6vLbVXH-421" edge="1">
          <mxGeometry relative="1" as="geometry" />
        </mxCell>
        <mxCell id="H8aK6nbUv7Lkt6vLbVXH-512" value="yes" style="edgeStyle=none;rounded=0;orthogonalLoop=1;jettySize=auto;html=1;exitX=1;exitY=0.5;exitDx=0;exitDy=0;entryX=0;entryY=0.5;entryDx=0;entryDy=0;" parent="1" source="H8aK6nbUv7Lkt6vLbVXH-420" target="H8aK6nbUv7Lkt6vLbVXH-430" edge="1">
          <mxGeometry relative="1" as="geometry" />
        </mxCell>
        <mxCell id="H8aK6nbUv7Lkt6vLbVXH-420" value="case 8" style="rhombus;whiteSpace=wrap;html=1;" parent="1" vertex="1">
          <mxGeometry x="10" y="50" width="90" height="80" as="geometry" />
        </mxCell>
        <mxCell id="H8aK6nbUv7Lkt6vLbVXH-484" value="no" style="edgeStyle=none;rounded=0;orthogonalLoop=1;jettySize=auto;html=1;exitX=0.5;exitY=1;exitDx=0;exitDy=0;entryX=0.5;entryY=0;entryDx=0;entryDy=0;" parent="1" source="H8aK6nbUv7Lkt6vLbVXH-421" target="H8aK6nbUv7Lkt6vLbVXH-422" edge="1">
          <mxGeometry relative="1" as="geometry" />
        </mxCell>
        <mxCell id="H8aK6nbUv7Lkt6vLbVXH-513" value="yes" style="edgeStyle=none;rounded=0;orthogonalLoop=1;jettySize=auto;html=1;exitX=1;exitY=0.5;exitDx=0;exitDy=0;entryX=0;entryY=0.5;entryDx=0;entryDy=0;" parent="1" source="H8aK6nbUv7Lkt6vLbVXH-421" target="H8aK6nbUv7Lkt6vLbVXH-431" edge="1">
          <mxGeometry relative="1" as="geometry" />
        </mxCell>
        <mxCell id="H8aK6nbUv7Lkt6vLbVXH-421" value="case 9" style="rhombus;whiteSpace=wrap;html=1;" parent="1" vertex="1">
          <mxGeometry x="10" y="170" width="90" height="80" as="geometry" />
        </mxCell>
        <mxCell id="H8aK6nbUv7Lkt6vLbVXH-489" value="no" style="rounded=0;orthogonalLoop=1;jettySize=auto;html=1;exitX=0.5;exitY=1;exitDx=0;exitDy=0;" parent="1" source="H8aK6nbUv7Lkt6vLbVXH-422" edge="1">
          <mxGeometry relative="1" as="geometry">
            <mxPoint x="530" y="420" as="targetPoint" />
            <Array as="points">
              <mxPoint x="55" y="420" />
            </Array>
          </mxGeometry>
        </mxCell>
        <mxCell id="H8aK6nbUv7Lkt6vLbVXH-514" value="yes" style="edgeStyle=none;rounded=0;orthogonalLoop=1;jettySize=auto;html=1;exitX=1;exitY=0.5;exitDx=0;exitDy=0;entryX=0;entryY=0.5;entryDx=0;entryDy=0;" parent="1" source="H8aK6nbUv7Lkt6vLbVXH-422" target="H8aK6nbUv7Lkt6vLbVXH-432" edge="1">
          <mxGeometry relative="1" as="geometry" />
        </mxCell>
        <mxCell id="H8aK6nbUv7Lkt6vLbVXH-422" value="case 10" style="rhombus;whiteSpace=wrap;html=1;" parent="1" vertex="1">
          <mxGeometry x="10" y="290" width="90" height="80" as="geometry" />
        </mxCell>
        <mxCell id="H8aK6nbUv7Lkt6vLbVXH-423" value="printf(a+b)" style="rounded=0;whiteSpace=wrap;html=1;" parent="1" vertex="1">
          <mxGeometry x="220" y="-780" width="220" height="60" as="geometry" />
        </mxCell>
        <mxCell id="H8aK6nbUv7Lkt6vLbVXH-424" value="printf(a-b)" style="rounded=0;whiteSpace=wrap;html=1;" parent="1" vertex="1">
          <mxGeometry x="220" y="-660" width="220" height="60" as="geometry" />
        </mxCell>
        <mxCell id="H8aK6nbUv7Lkt6vLbVXH-425" value="printf(a*b)" style="rounded=0;whiteSpace=wrap;html=1;" parent="1" vertex="1">
          <mxGeometry x="220" y="-540" width="220" height="60" as="geometry" />
        </mxCell>
        <mxCell id="H8aK6nbUv7Lkt6vLbVXH-426" value="printf(a/b)" style="rounded=0;whiteSpace=wrap;html=1;" parent="1" vertex="1">
          <mxGeometry x="220" y="-420" width="220" height="60" as="geometry" />
        </mxCell>
        <mxCell id="H8aK6nbUv7Lkt6vLbVXH-427" value="sine(a)" style="rounded=0;whiteSpace=wrap;html=1;" parent="1" vertex="1">
          <mxGeometry x="220" y="-300" width="220" height="60" as="geometry" />
        </mxCell>
        <mxCell id="H8aK6nbUv7Lkt6vLbVXH-428" value="cosine(a)" style="rounded=0;whiteSpace=wrap;html=1;" parent="1" vertex="1">
          <mxGeometry x="220" y="-180" width="220" height="60" as="geometry" />
        </mxCell>
        <mxCell id="H8aK6nbUv7Lkt6vLbVXH-429" value="tangent(a)" style="rounded=0;whiteSpace=wrap;html=1;" parent="1" vertex="1">
          <mxGeometry x="220" y="-60" width="220" height="60" as="geometry" />
        </mxCell>
        <mxCell id="H8aK6nbUv7Lkt6vLbVXH-430" value="sineh(a)" style="rounded=0;whiteSpace=wrap;html=1;" parent="1" vertex="1">
          <mxGeometry x="220" y="60" width="220" height="60" as="geometry" />
        </mxCell>
        <mxCell id="H8aK6nbUv7Lkt6vLbVXH-431" value="cosineh(a)" style="rounded=0;whiteSpace=wrap;html=1;" parent="1" vertex="1">
          <mxGeometry x="220" y="180" width="220" height="60" as="geometry" />
        </mxCell>
        <mxCell id="H8aK6nbUv7Lkt6vLbVXH-432" value="tangenth(a)" style="rounded=0;whiteSpace=wrap;html=1;" parent="1" vertex="1">
          <mxGeometry x="220" y="300" width="220" height="60" as="geometry" />
        </mxCell>
        <mxCell id="H8aK6nbUv7Lkt6vLbVXH-486" style="edgeStyle=orthogonalEdgeStyle;rounded=0;orthogonalLoop=1;jettySize=auto;html=1;exitX=0.5;exitY=0;exitDx=0;exitDy=0;entryX=0.5;entryY=0;entryDx=0;entryDy=0;" parent="1" target="H8aK6nbUv7Lkt6vLbVXH-433" edge="1">
          <mxGeometry relative="1" as="geometry">
            <mxPoint x="520" y="420" as="sourcePoint" />
          </mxGeometry>
        </mxCell>
        <mxCell id="H8aK6nbUv7Lkt6vLbVXH-491" value="no" style="edgeStyle=none;rounded=0;orthogonalLoop=1;jettySize=auto;html=1;exitX=0.5;exitY=1;exitDx=0;exitDy=0;entryX=0.5;entryY=0;entryDx=0;entryDy=0;" parent="1" source="H8aK6nbUv7Lkt6vLbVXH-433" target="H8aK6nbUv7Lkt6vLbVXH-434" edge="1">
          <mxGeometry relative="1" as="geometry" />
        </mxCell>
        <mxCell id="H8aK6nbUv7Lkt6vLbVXH-515" value="yes" style="edgeStyle=none;rounded=0;orthogonalLoop=1;jettySize=auto;html=1;exitX=1;exitY=0.5;exitDx=0;exitDy=0;" parent="1" source="H8aK6nbUv7Lkt6vLbVXH-433" target="H8aK6nbUv7Lkt6vLbVXH-443" edge="1">
          <mxGeometry relative="1" as="geometry" />
        </mxCell>
        <mxCell id="H8aK6nbUv7Lkt6vLbVXH-433" value="case 11" style="rhombus;whiteSpace=wrap;html=1;" parent="1" vertex="1">
          <mxGeometry x="600" y="-800" width="90" height="80" as="geometry" />
        </mxCell>
        <mxCell id="H8aK6nbUv7Lkt6vLbVXH-492" value="no" style="edgeStyle=none;rounded=0;orthogonalLoop=1;jettySize=auto;html=1;exitX=0.5;exitY=1;exitDx=0;exitDy=0;entryX=0.5;entryY=0;entryDx=0;entryDy=0;" parent="1" source="H8aK6nbUv7Lkt6vLbVXH-434" target="H8aK6nbUv7Lkt6vLbVXH-435" edge="1">
          <mxGeometry relative="1" as="geometry" />
        </mxCell>
        <mxCell id="H8aK6nbUv7Lkt6vLbVXH-516" value="yes" style="edgeStyle=none;rounded=0;orthogonalLoop=1;jettySize=auto;html=1;exitX=1;exitY=0.5;exitDx=0;exitDy=0;entryX=0;entryY=0.5;entryDx=0;entryDy=0;" parent="1" source="H8aK6nbUv7Lkt6vLbVXH-434" target="H8aK6nbUv7Lkt6vLbVXH-444" edge="1">
          <mxGeometry relative="1" as="geometry" />
        </mxCell>
        <mxCell id="H8aK6nbUv7Lkt6vLbVXH-434" value="case 12" style="rhombus;whiteSpace=wrap;html=1;" parent="1" vertex="1">
          <mxGeometry x="600" y="-680" width="90" height="80" as="geometry" />
        </mxCell>
        <mxCell id="H8aK6nbUv7Lkt6vLbVXH-493" value="no" style="edgeStyle=none;rounded=0;orthogonalLoop=1;jettySize=auto;html=1;exitX=0.5;exitY=1;exitDx=0;exitDy=0;entryX=0.5;entryY=0;entryDx=0;entryDy=0;" parent="1" source="H8aK6nbUv7Lkt6vLbVXH-435" target="H8aK6nbUv7Lkt6vLbVXH-436" edge="1">
          <mxGeometry relative="1" as="geometry" />
        </mxCell>
        <mxCell id="H8aK6nbUv7Lkt6vLbVXH-517" style="edgeStyle=none;rounded=0;orthogonalLoop=1;jettySize=auto;html=1;exitX=1;exitY=0.5;exitDx=0;exitDy=0;entryX=0;entryY=0.5;entryDx=0;entryDy=0;" parent="1" source="H8aK6nbUv7Lkt6vLbVXH-435" target="H8aK6nbUv7Lkt6vLbVXH-445" edge="1">
          <mxGeometry relative="1" as="geometry" />
        </mxCell>
        <mxCell id="H8aK6nbUv7Lkt6vLbVXH-435" value="case13" style="rhombus;whiteSpace=wrap;html=1;" parent="1" vertex="1">
          <mxGeometry x="600" y="-560" width="90" height="80" as="geometry" />
        </mxCell>
        <mxCell id="H8aK6nbUv7Lkt6vLbVXH-494" value="no" style="edgeStyle=none;rounded=0;orthogonalLoop=1;jettySize=auto;html=1;exitX=0.5;exitY=1;exitDx=0;exitDy=0;entryX=0.5;entryY=0;entryDx=0;entryDy=0;" parent="1" source="H8aK6nbUv7Lkt6vLbVXH-436" target="H8aK6nbUv7Lkt6vLbVXH-437" edge="1">
          <mxGeometry relative="1" as="geometry" />
        </mxCell>
        <mxCell id="H8aK6nbUv7Lkt6vLbVXH-518" value="yes" style="edgeStyle=none;rounded=0;orthogonalLoop=1;jettySize=auto;html=1;exitX=1;exitY=0.5;exitDx=0;exitDy=0;entryX=0;entryY=0.5;entryDx=0;entryDy=0;" parent="1" source="H8aK6nbUv7Lkt6vLbVXH-436" target="H8aK6nbUv7Lkt6vLbVXH-446" edge="1">
          <mxGeometry relative="1" as="geometry" />
        </mxCell>
        <mxCell id="H8aK6nbUv7Lkt6vLbVXH-436" value="case 14" style="rhombus;whiteSpace=wrap;html=1;" parent="1" vertex="1">
          <mxGeometry x="600" y="-440" width="90" height="80" as="geometry" />
        </mxCell>
        <mxCell id="H8aK6nbUv7Lkt6vLbVXH-495" value="no" style="edgeStyle=none;rounded=0;orthogonalLoop=1;jettySize=auto;html=1;exitX=0.5;exitY=1;exitDx=0;exitDy=0;entryX=0.5;entryY=0;entryDx=0;entryDy=0;" parent="1" source="H8aK6nbUv7Lkt6vLbVXH-437" target="H8aK6nbUv7Lkt6vLbVXH-438" edge="1">
          <mxGeometry relative="1" as="geometry" />
        </mxCell>
        <mxCell id="H8aK6nbUv7Lkt6vLbVXH-519" value="yes" style="edgeStyle=none;rounded=0;orthogonalLoop=1;jettySize=auto;html=1;exitX=1;exitY=0.5;exitDx=0;exitDy=0;entryX=0;entryY=0.5;entryDx=0;entryDy=0;" parent="1" source="H8aK6nbUv7Lkt6vLbVXH-437" target="H8aK6nbUv7Lkt6vLbVXH-447" edge="1">
          <mxGeometry relative="1" as="geometry" />
        </mxCell>
        <mxCell id="H8aK6nbUv7Lkt6vLbVXH-437" value="case 15" style="rhombus;whiteSpace=wrap;html=1;" parent="1" vertex="1">
          <mxGeometry x="600" y="-320" width="90" height="80" as="geometry" />
        </mxCell>
        <mxCell id="H8aK6nbUv7Lkt6vLbVXH-496" value="no" style="edgeStyle=none;rounded=0;orthogonalLoop=1;jettySize=auto;html=1;exitX=0.5;exitY=1;exitDx=0;exitDy=0;entryX=0.5;entryY=0;entryDx=0;entryDy=0;" parent="1" source="H8aK6nbUv7Lkt6vLbVXH-438" target="H8aK6nbUv7Lkt6vLbVXH-439" edge="1">
          <mxGeometry relative="1" as="geometry" />
        </mxCell>
        <mxCell id="H8aK6nbUv7Lkt6vLbVXH-520" value="yes" style="edgeStyle=none;rounded=0;orthogonalLoop=1;jettySize=auto;html=1;exitX=1;exitY=0.5;exitDx=0;exitDy=0;entryX=0;entryY=0.5;entryDx=0;entryDy=0;" parent="1" source="H8aK6nbUv7Lkt6vLbVXH-438" target="H8aK6nbUv7Lkt6vLbVXH-448" edge="1">
          <mxGeometry relative="1" as="geometry" />
        </mxCell>
        <mxCell id="H8aK6nbUv7Lkt6vLbVXH-438" value="case 16" style="rhombus;whiteSpace=wrap;html=1;" parent="1" vertex="1">
          <mxGeometry x="600" y="-200" width="90" height="80" as="geometry" />
        </mxCell>
        <mxCell id="H8aK6nbUv7Lkt6vLbVXH-498" value="no" style="edgeStyle=none;rounded=0;orthogonalLoop=1;jettySize=auto;html=1;exitX=0.5;exitY=1;exitDx=0;exitDy=0;" parent="1" source="H8aK6nbUv7Lkt6vLbVXH-439" edge="1">
          <mxGeometry relative="1" as="geometry">
            <mxPoint x="644.5" y="40" as="targetPoint" />
          </mxGeometry>
        </mxCell>
        <mxCell id="H8aK6nbUv7Lkt6vLbVXH-521" value="yes" style="edgeStyle=none;rounded=0;orthogonalLoop=1;jettySize=auto;html=1;exitX=1;exitY=0.5;exitDx=0;exitDy=0;entryX=0;entryY=0.5;entryDx=0;entryDy=0;" parent="1" source="H8aK6nbUv7Lkt6vLbVXH-439" target="H8aK6nbUv7Lkt6vLbVXH-449" edge="1">
          <mxGeometry relative="1" as="geometry" />
        </mxCell>
        <mxCell id="H8aK6nbUv7Lkt6vLbVXH-439" value="case 17" style="rhombus;whiteSpace=wrap;html=1;" parent="1" vertex="1">
          <mxGeometry x="600" y="-80" width="90" height="80" as="geometry" />
        </mxCell>
        <mxCell id="H8aK6nbUv7Lkt6vLbVXH-500" value="no" style="edgeStyle=none;rounded=0;orthogonalLoop=1;jettySize=auto;html=1;exitX=0.5;exitY=1;exitDx=0;exitDy=0;" parent="1" source="H8aK6nbUv7Lkt6vLbVXH-440" target="H8aK6nbUv7Lkt6vLbVXH-441" edge="1">
          <mxGeometry relative="1" as="geometry" />
        </mxCell>
        <mxCell id="H8aK6nbUv7Lkt6vLbVXH-522" value="yes" style="edgeStyle=none;rounded=0;orthogonalLoop=1;jettySize=auto;html=1;exitX=1;exitY=0.5;exitDx=0;exitDy=0;entryX=0;entryY=0.5;entryDx=0;entryDy=0;" parent="1" source="H8aK6nbUv7Lkt6vLbVXH-440" target="H8aK6nbUv7Lkt6vLbVXH-450" edge="1">
          <mxGeometry relative="1" as="geometry" />
        </mxCell>
        <mxCell id="H8aK6nbUv7Lkt6vLbVXH-440" value="case 18" style="rhombus;whiteSpace=wrap;html=1;" parent="1" vertex="1">
          <mxGeometry x="600" y="40" width="90" height="80" as="geometry" />
        </mxCell>
        <mxCell id="H8aK6nbUv7Lkt6vLbVXH-501" value="no" style="edgeStyle=none;rounded=0;orthogonalLoop=1;jettySize=auto;html=1;exitX=0.5;exitY=1;exitDx=0;exitDy=0;entryX=0.5;entryY=0;entryDx=0;entryDy=0;" parent="1" source="H8aK6nbUv7Lkt6vLbVXH-441" target="H8aK6nbUv7Lkt6vLbVXH-442" edge="1">
          <mxGeometry relative="1" as="geometry" />
        </mxCell>
        <mxCell id="H8aK6nbUv7Lkt6vLbVXH-523" value="yes" style="edgeStyle=none;rounded=0;orthogonalLoop=1;jettySize=auto;html=1;exitX=1;exitY=0.5;exitDx=0;exitDy=0;entryX=0;entryY=0.5;entryDx=0;entryDy=0;" parent="1" source="H8aK6nbUv7Lkt6vLbVXH-441" target="H8aK6nbUv7Lkt6vLbVXH-451" edge="1">
          <mxGeometry relative="1" as="geometry" />
        </mxCell>
        <mxCell id="H8aK6nbUv7Lkt6vLbVXH-441" value="case 19" style="rhombus;whiteSpace=wrap;html=1;" parent="1" vertex="1">
          <mxGeometry x="600" y="160" width="90" height="80" as="geometry" />
        </mxCell>
        <mxCell id="H8aK6nbUv7Lkt6vLbVXH-502" value="no" style="edgeStyle=none;rounded=0;orthogonalLoop=1;jettySize=auto;html=1;exitX=0.5;exitY=1;exitDx=0;exitDy=0;entryX=0.5;entryY=0;entryDx=0;entryDy=0;" parent="1" source="H8aK6nbUv7Lkt6vLbVXH-442" target="H8aK6nbUv7Lkt6vLbVXH-453" edge="1">
          <mxGeometry relative="1" as="geometry" />
        </mxCell>
        <mxCell id="H8aK6nbUv7Lkt6vLbVXH-524" value="yes" style="edgeStyle=none;rounded=0;orthogonalLoop=1;jettySize=auto;html=1;exitX=1;exitY=0.5;exitDx=0;exitDy=0;entryX=0;entryY=0.5;entryDx=0;entryDy=0;" parent="1" source="H8aK6nbUv7Lkt6vLbVXH-442" target="H8aK6nbUv7Lkt6vLbVXH-452" edge="1">
          <mxGeometry relative="1" as="geometry" />
        </mxCell>
        <mxCell id="H8aK6nbUv7Lkt6vLbVXH-442" value="case 20" style="rhombus;whiteSpace=wrap;html=1;" parent="1" vertex="1">
          <mxGeometry x="600" y="280" width="90" height="80" as="geometry" />
        </mxCell>
        <mxCell id="H8aK6nbUv7Lkt6vLbVXH-443" value="logten(a)" style="rounded=0;whiteSpace=wrap;html=1;" parent="1" vertex="1">
          <mxGeometry x="810" y="-790" width="220" height="60" as="geometry" />
        </mxCell>
        <mxCell id="H8aK6nbUv7Lkt6vLbVXH-444" value="squareroot(a)" style="rounded=0;whiteSpace=wrap;html=1;" parent="1" vertex="1">
          <mxGeometry x="811" y="-670" width="220" height="60" as="geometry" />
        </mxCell>
        <mxCell id="H8aK6nbUv7Lkt6vLbVXH-445" value="exponent(a)" style="rounded=0;whiteSpace=wrap;html=1;" parent="1" vertex="1">
          <mxGeometry x="810" y="-550" width="220" height="60" as="geometry" />
        </mxCell>
        <mxCell id="H8aK6nbUv7Lkt6vLbVXH-446" value="power(a,b)" style="rounded=0;whiteSpace=wrap;html=1;" parent="1" vertex="1">
          <mxGeometry x="810" y="-430" width="220" height="60" as="geometry" />
        </mxCell>
        <mxCell id="H8aK6nbUv7Lkt6vLbVXH-447" value="Dec_to_Bin()" style="rounded=0;whiteSpace=wrap;html=1;" parent="1" vertex="1">
          <mxGeometry x="810" y="-310" width="220" height="60" as="geometry" />
        </mxCell>
        <mxCell id="H8aK6nbUv7Lkt6vLbVXH-448" value="Dec_to_Oct()" style="rounded=0;whiteSpace=wrap;html=1;" parent="1" vertex="1">
          <mxGeometry x="810" y="-190" width="220" height="60" as="geometry" />
        </mxCell>
        <mxCell id="H8aK6nbUv7Lkt6vLbVXH-449" value="Dec_to_Hex()" style="rounded=0;whiteSpace=wrap;html=1;" parent="1" vertex="1">
          <mxGeometry x="810" y="-70" width="220" height="60" as="geometry" />
        </mxCell>
        <mxCell id="H8aK6nbUv7Lkt6vLbVXH-450" value="Bin_to_Dec()" style="rounded=0;whiteSpace=wrap;html=1;" parent="1" vertex="1">
          <mxGeometry x="810" y="50" width="220" height="60" as="geometry" />
        </mxCell>
        <mxCell id="H8aK6nbUv7Lkt6vLbVXH-451" value="Oct_to_Dec()" style="rounded=0;whiteSpace=wrap;html=1;" parent="1" vertex="1">
          <mxGeometry x="810" y="170" width="220" height="60" as="geometry" />
        </mxCell>
        <mxCell id="H8aK6nbUv7Lkt6vLbVXH-452" value="Hex_to_Dec()" style="rounded=0;whiteSpace=wrap;html=1;" parent="1" vertex="1">
          <mxGeometry x="810" y="290" width="220" height="60" as="geometry" />
        </mxCell>
        <mxCell id="H8aK6nbUv7Lkt6vLbVXH-504" style="edgeStyle=none;rounded=0;orthogonalLoop=1;jettySize=auto;html=1;exitX=0.5;exitY=1;exitDx=0;exitDy=0;entryX=1;entryY=0.5;entryDx=0;entryDy=0;" parent="1" source="H8aK6nbUv7Lkt6vLbVXH-453" target="H8aK6nbUv7Lkt6vLbVXH-454" edge="1">
          <mxGeometry relative="1" as="geometry">
            <Array as="points">
              <mxPoint x="645" y="560" />
            </Array>
          </mxGeometry>
        </mxCell>
        <mxCell id="H8aK6nbUv7Lkt6vLbVXH-453" value="default :" style="rhombus;whiteSpace=wrap;html=1;" parent="1" vertex="1">
          <mxGeometry x="587.5" y="440" width="115" height="110" as="geometry" />
        </mxCell>
        <mxCell id="H8aK6nbUv7Lkt6vLbVXH-454" value="stop" style="ellipse;whiteSpace=wrap;html=1;" parent="1" vertex="1">
          <mxGeometry y="520" width="120" height="80" as="geometry" />
        </mxCell>
        <mxCell id="H8aK6nbUv7Lkt6vLbVXH-497" style="edgeStyle=none;rounded=0;orthogonalLoop=1;jettySize=auto;html=1;entryX=0.5;entryY=0;entryDx=0;entryDy=0;" parent="1" source="H8aK6nbUv7Lkt6vLbVXH-440" target="H8aK6nbUv7Lkt6vLbVXH-440" edge="1">
          <mxGeometry relative="1" as="geometry" />
        </mxCell>
      </root>
    </mxGraphModel>
  </diagram>
</mxfile>
